<svg width="48" height="48" viewBox="0 0 48 48" fill="none" xmlns="http://www.w3.org/2000/svg">
<path d="M34.808 6.34428C31.6875 3.22374 26.614 3.21341 23.4935 6.34428L15.6611 14.1766L26.986 25.5015L34.808 17.6588C37.9285 14.5279 37.9285 9.46481 34.808 6.34428ZM26.7793 10.9734L23.2145 14.4866L23.2041 14.4969C22.7908 14.8999 22.1399 14.8896 21.7472 14.4763C21.3442 14.063 21.3546 13.412 21.7679 13.0193L25.3431 9.50614L25.3534 9.49581C25.7667 9.09283 26.4177 9.10316 26.8103 9.51648C27.203 9.91946 27.1926 10.5808 26.7793 10.9734Z" fill="#28305F"/>
<path d="M14.1937 15.6348L6.3097 23.5291C3.1995 26.66 3.1995 31.7128 6.3097 34.8436C9.46124 37.9538 14.5347 37.9538 17.6862 34.8436L25.5289 26.97L14.1937 15.6348Z" fill="#28305F"/>
<path d="M42.3714 31.1953L31.2222 42.3548C34.3944 44.7831 38.8685 44.4937 41.6894 41.6729C44.5206 38.852 44.8099 34.3675 42.3714 31.1953Z" fill="#28305F"/>
<path d="M36.0686 28.0977C31.6772 28.0977 28.1123 31.6522 28.1123 36.054C28.1123 37.8106 28.6909 39.5155 29.7552 40.9001L40.9044 29.7509C39.5198 28.6763 37.8252 28.0977 36.0686 28.0977Z" fill="#28305F"/>
</svg>
