<svg width="68" height="68" viewBox="0 0 68 68" fill="none" xmlns="http://www.w3.org/2000/svg">
<mask id="mask0_68_129" style="mask-type:luminance" maskUnits="userSpaceOnUse" x="14" y="14" width="40" height="40">
<path d="M14 14H54V54H14V14Z" fill="white"/>
</mask>
<g mask="url(#mask0_68_129)">
<path d="M41.4219 15.1719H36.3438H31.6562V19.8594V24.5469H36.3438V19.8594H41.4219V15.1719Z" stroke="#40BCC8" stroke-width="2.35" stroke-miterlimit="10" stroke-linecap="round" stroke-linejoin="round"/>
<path d="M25.0156 38.7656C25.0156 40.06 23.9663 41.1094 22.6719 41.1094C21.3775 41.1094 20.3281 40.06 20.3281 38.7656C20.3281 37.4712 21.3775 36.4219 22.6719 36.4219C23.9663 36.4219 25.0156 37.4712 25.0156 38.7656Z" stroke="#40BCC8" stroke-width="2.35" stroke-miterlimit="10" stroke-linecap="round" stroke-linejoin="round"/>
<path d="M29.7031 38.7656C29.7031 40.06 28.6538 41.1094 27.3594 41.1094C26.065 41.1094 25.0156 40.06 25.0156 38.7656C25.0156 37.4712 26.065 36.4219 27.3594 36.4219C28.6538 36.4219 29.7031 37.4712 29.7031 38.7656Z" stroke="#40BCC8" stroke-width="2.35" stroke-miterlimit="10" stroke-linecap="round" stroke-linejoin="round"/>
<path d="M24.625 34.0781C23.9778 34.0781 23.4531 33.5534 23.4531 32.9062C23.4531 32.2591 23.9778 31.7344 24.625 31.7344C25.2722 31.7344 25.7969 32.2591 25.7969 32.9062C25.7969 33.5534 25.2722 34.0781 24.625 34.0781Z" fill="#40BCC8"/>
<path d="M27.2813 47.3594C26.6341 47.3594 26.1094 46.8347 26.1094 46.1875C26.1094 45.5403 26.6341 45.0156 27.2813 45.0156C27.9284 45.0156 28.4531 45.5403 28.4531 46.1875C28.4531 46.8347 27.9284 47.3594 27.2813 47.3594Z" fill="#40BCC8"/>
<path d="M42.9844 38.7656C42.9844 40.06 44.0338 41.1094 45.3281 41.1094C46.6225 41.1094 47.6719 40.06 47.6719 38.7656C47.6719 37.4712 46.6225 36.4219 45.3281 36.4219C44.0338 36.4219 42.9844 37.4712 42.9844 38.7656Z" stroke="#40BCC8" stroke-width="2.35" stroke-miterlimit="10" stroke-linecap="round" stroke-linejoin="round"/>
<path d="M38.2969 38.7656C38.2969 40.06 39.3463 41.1094 40.6406 41.1094C41.935 41.1094 42.9844 40.06 42.9844 38.7656C42.9844 37.4712 41.935 36.4219 40.6406 36.4219C39.3463 36.4219 38.2969 37.4712 38.2969 38.7656Z" stroke="#40BCC8" stroke-width="2.35" stroke-miterlimit="10" stroke-linecap="round" stroke-linejoin="round"/>
<path d="M43.375 34.0781C44.0222 34.0781 44.5469 33.5534 44.5469 32.9062C44.5469 32.2591 44.0222 31.7344 43.375 31.7344C42.7278 31.7344 42.2031 32.2591 42.2031 32.9062C42.2031 33.5534 42.7278 34.0781 43.375 34.0781Z" fill="#40BCC8"/>
<path d="M40.7188 47.3594C41.3659 47.3594 41.8906 46.8347 41.8906 46.1875C41.8906 45.5403 41.3659 45.0156 40.7188 45.0156C40.0716 45.0156 39.5469 45.5403 39.5469 46.1875C39.5469 46.8347 40.0716 47.3594 40.7188 47.3594Z" fill="#40BCC8"/>
<path d="M27.996 29.2344H40.0039C40.4604 29.0584 40.9341 28.9171 41.4219 28.8137V24.5469H26.5781V28.8137C27.0659 28.9171 27.5395 29.0584 27.996 29.2344Z" stroke="#40BCC8" stroke-width="2.35" stroke-miterlimit="10" stroke-linecap="round" stroke-linejoin="round"/>
<path d="M21.4219 28.5312C21.4219 30.2571 20.0228 31.6562 18.2969 31.6562C16.5709 31.6562 15.1719 30.2571 15.1719 28.5312C15.1719 26.8054 16.5709 25.4062 18.2969 25.4062C20.0228 25.4062 21.4219 26.8054 21.4219 28.5312Z" stroke="#40BCC8" stroke-width="2.35" stroke-miterlimit="10" stroke-linecap="round" stroke-linejoin="round"/>
<path d="M46.5781 28.5312C46.5781 30.2571 47.9772 31.6562 49.7031 31.6562C51.4291 31.6562 52.8281 30.2571 52.8281 28.5312C52.8281 26.8054 51.4291 25.4062 49.7031 25.4062C47.9772 25.4062 46.5781 26.8054 46.5781 28.5312Z" stroke="#40BCC8" stroke-width="2.35" stroke-miterlimit="10" stroke-linecap="round" stroke-linejoin="round"/>
<path d="M17.7531 31.6081C16.2001 33.2812 15.25 35.5216 15.25 37.9844C15.25 42.2108 18.047 45.7835 21.8906 46.9538V50.0938C21.8906 51.6039 23.1148 52.8281 24.625 52.8281C29.8027 52.8281 34 48.6309 34 43.4531V37.9844C34 32.8067 29.8027 28.6094 24.625 28.6094C23.4729 28.6094 22.3695 28.8177 21.3498 29.1979" stroke="#40BCC8" stroke-width="2.35" stroke-miterlimit="10" stroke-linecap="round" stroke-linejoin="round"/>
<path d="M46.6502 29.1979C45.6305 28.8177 44.5271 28.6094 43.375 28.6094C38.1973 28.6094 34 32.8066 34 37.9844V43.4531C34 48.6308 38.1973 52.8281 43.375 52.8281C44.8852 52.8281 46.1094 51.6039 46.1094 50.0938V46.9537C49.953 45.7834 52.75 42.2107 52.75 37.9844C52.75 35.5216 51.7999 33.2811 50.2469 31.6081" stroke="#40BCC8" stroke-width="2.35" stroke-miterlimit="10" stroke-linecap="round" stroke-linejoin="round"/>
</g>
</svg>
