<svg width="110" height="28" viewBox="0 0 110 28" fill="none" xmlns="http://www.w3.org/2000/svg">
<path d="M41.5042 12.4116C41.2054 11.2416 40.7689 8.92313 38.2658 8.92313C36.9562 8.92313 35.9688 9.79547 35.9688 11.2182C35.9688 14.7526 43.3188 14.5233 43.3188 19.4337C43.3188 22.692 40.4242 23.8854 37.6681 23.8854C35.67 23.8854 34.3604 23.3575 33.625 22.9672C33.0733 21.5219 32.959 20.4886 32.959 18.6531L34.039 18.4237C34.3604 19.8006 35.1183 23.0131 38.0588 23.0131C39.5061 23.0131 40.471 22.0031 40.471 20.4661C40.471 16.5882 33.3505 16.8859 33.3505 12.1814C33.3505 9.26756 35.5097 8.05078 38.4728 8.05078C40.1955 8.05078 41.2288 8.41772 42.0794 8.89976C42.263 10.0239 42.3323 11.2407 42.3323 12.4108H41.5042V12.4116Z" fill="#003946"/>
<path d="M52.5896 22.7171C51.9001 23.1299 50.8209 23.8871 49.0982 23.8871C45.5375 23.8871 45.3773 21.8222 45.3773 19.2744V15.9469C45.3773 15.1438 45.3773 14.1113 44.6887 14.1113C44.344 14.1113 44.046 14.2256 43.9534 14.2489V13.5834C45.6761 13.0097 46.9398 12.8262 48.1342 12.7578V19.2061C48.1342 21.0191 48.4789 22.5561 50.73 22.5561C51.6031 22.5561 52.1314 22.1433 52.4527 21.9823V15.9469C52.4527 15.1438 52.4527 14.1113 51.7642 14.1113C51.4194 14.1113 51.1215 14.2256 51.0288 14.2489V13.5834C52.7515 13.0097 54.0152 12.8262 55.2096 12.7578V19.6189C55.2096 21.5012 55.2096 22.396 55.9909 22.396C56.1286 22.396 56.404 22.4185 56.6336 22.3735L56.6795 22.9698C55.6228 23.3367 54.3591 23.6587 53.2115 23.888L52.5896 22.7171Z" fill="#003946"/>
<path d="M58.8783 15.9469C58.8783 15.1438 58.8783 14.1113 58.1897 14.1113C57.845 14.1113 57.5462 14.2256 57.4543 14.2489V13.5834C59.1771 13.0097 60.3949 12.8262 61.5893 12.7578V14.0888C62.1635 13.5843 63.2661 12.7578 65.2184 12.7578C67.2858 12.7578 68.6864 13.7444 68.6864 16.8426V21.3636C68.6864 22.5795 68.8016 22.8322 69.6278 22.9014L70.1103 22.9473V23.5436H64.5055V22.9473L64.988 22.9014C65.8151 22.8322 65.9295 22.5795 65.9295 21.3636V18.1053C65.9295 16.2922 65.9295 14.0897 63.5407 14.0897C62.5992 14.0897 62.0015 14.5717 61.6343 14.962V21.3644C61.6343 22.5803 61.7486 22.8331 62.5758 22.9023L63.0582 22.9482V23.5444H57.4994V22.9482L57.9818 22.9023C58.7631 22.8331 58.8774 22.5803 58.8774 21.3644L58.8783 15.9469Z" fill="#003946"/>
<path d="M74.2891 22.944L74.8399 22.8748C75.92 22.6679 75.92 22.7605 75.92 20.1444V11.7221C75.92 9.49621 75.92 9.22014 74.8399 9.06004L74.2891 8.99081V8.39453H80.5365V8.99081L79.9847 9.06004C78.9055 9.22101 78.9055 9.49621 78.9055 11.7221V22.3469C79.5941 22.5078 80.307 22.6679 81.0189 22.6679C84.2574 22.6679 84.2808 21.1076 84.9468 19.2028L85.774 19.3638C85.6363 20.8557 85.4752 22.0717 84.9702 23.5403H74.2891V22.944Z" fill="#003946"/>
<path d="M86.3057 22.9454L86.7881 22.8995C87.6153 22.8078 87.7296 22.5776 87.7296 21.3617V15.9459C87.7296 15.1427 87.7296 14.1103 87.0401 14.1103C86.6954 14.1103 86.3975 14.2245 86.3057 14.2479V13.5824C88.0284 13.0086 89.2921 12.8251 90.4865 12.7568V21.3617C90.4865 22.5776 90.6008 22.8069 91.428 22.8995L91.9104 22.9454V23.5417H86.3057V22.9454ZM87.339 9.22239C87.339 8.35005 88.0284 7.63867 88.9465 7.63867C89.8196 7.63867 90.5549 8.35005 90.5549 9.22239C90.5549 10.1865 89.8196 10.852 88.9465 10.852C88.0284 10.852 87.339 10.1631 87.339 9.22239Z" fill="#003946"/>
<path d="M94.2367 13.0996C94.2367 9.90964 95.8217 6.67383 99.4283 6.67383C100.645 6.67383 101.426 7.04077 101.931 7.43107C101.77 8.14245 101.587 8.57862 101.012 9.1524H100.851C100.415 8.73959 99.3581 7.82138 98.4625 7.82138C97.0845 7.82138 96.9927 9.6803 96.9927 11.7911V13.0987C97.6821 13.1212 99.0827 13.2138 99.8414 13.3056V13.9018C98.854 14.0169 97.9576 14.0853 96.9927 14.1312V21.36C96.9927 22.5759 97.1079 22.8287 97.9576 22.8979L98.8765 22.9438V23.54H92.8127V22.9438L93.2718 22.8979C94.1215 22.8062 94.2367 22.5759 94.2367 21.36V14.1312V13.0996Z" fill="#003946"/>
<path d="M109.932 22.4185C109.334 22.9006 107.887 23.8871 105.567 23.8871C102.857 23.8871 100.192 22.1658 100.192 18.4713C100.192 14.8227 102.834 12.7578 105.452 12.7578C109.15 12.7578 109.747 15.1671 110 16.4982C108.025 17.4155 105.475 18.1503 103.087 18.7007C103.339 20.0775 104.028 22.5561 107.176 22.5561C108.416 22.5561 109.381 22.0516 109.702 21.8906L109.932 22.4185ZM107.244 16.6358C107.083 14.9837 106.394 13.6293 104.947 13.6293C102.949 13.6293 102.949 17.2095 102.949 17.6223C104.395 17.393 105.843 17.0944 107.244 16.6358Z" fill="#003946"/>
<path d="M14.8151 2.80293C14.7718 2.40916 14.7536 2.00761 14.7917 1.60692C14.8099 1.41653 14.8402 1.227 14.8878 1.0418C14.8982 0.999392 14.9147 0.916312 14.9363 0.830635C14.9563 0.752747 14.8748 0.695629 14.8151 0.744958C14.2763 1.18805 13.7922 1.78087 13.4345 2.38666C13.14 2.88601 12.9269 3.45373 12.8706 4.03443C13.5982 4.12183 14.3136 4.27848 15.0082 4.49916C15.0403 3.92365 14.8766 3.36459 14.8151 2.80293Z" fill="#FEBE10"/>
<path d="M9.67915 4.09357C10.3322 3.98972 10.9861 3.94558 11.6357 3.95424C11.621 3.86597 11.6037 3.77856 11.5812 3.69202C11.5076 3.41508 11.3378 3.16324 11.2217 2.90362C11.0927 2.61543 10.9757 2.32032 10.8848 2.01569C10.8172 1.78895 10.7601 1.55442 10.7332 1.3173C10.7185 1.18576 10.7116 1.05335 10.715 0.920936C10.7159 0.895839 10.7142 0.848241 10.7133 0.794584C10.7124 0.722754 10.631 0.689003 10.5895 0.74439C10.2517 1.18489 10.0195 1.71885 9.84544 2.26407C9.72678 2.63534 9.63064 3.0317 9.61592 3.42806C9.60899 3.60374 9.61852 3.77856 9.64883 3.95251C9.65576 4.00011 9.66789 4.04684 9.67915 4.09357Z" fill="#FEBE10"/>
<path d="M6.56228 4.91521C6.58047 4.95329 6.60126 4.98964 6.62118 5.02598C6.68527 4.99656 6.74763 4.9654 6.81173 4.93685C7.28637 4.72828 7.76794 4.55693 8.2521 4.41586C8.22266 4.35442 8.19061 4.29297 8.15596 4.23412C8.02778 4.01431 7.82164 3.83863 7.66054 3.64391C7.48125 3.42755 7.31062 3.20341 7.15991 2.96282C7.04818 2.78541 6.94338 2.59761 6.86369 2.40116C6.81952 2.29212 6.78228 2.18048 6.75369 2.06624C6.74763 2.04374 6.73464 2.00393 6.72165 1.95806C6.70433 1.89662 6.62637 1.8871 6.60385 1.94422C6.41937 2.40203 6.34748 2.91436 6.32842 3.42322C6.31543 3.76939 6.32756 4.13114 6.40984 4.47385C6.44535 4.62616 6.49559 4.77415 6.56228 4.91521Z" fill="#FEBE10"/>
<path d="M18.7239 6.47772C19.4021 7.01601 20.0248 7.63219 20.5748 8.32366C20.9879 7.77931 21.2036 7.12159 21.5198 6.53051C21.7441 6.11078 21.997 5.70057 22.3062 5.3293C22.4526 5.15362 22.6119 4.9866 22.7843 4.83428C22.8241 4.79966 22.896 4.72783 22.9757 4.65774C23.0476 4.59369 23.006 4.48206 22.9134 4.49071C22.0801 4.56514 21.1984 4.82476 20.4336 5.18391C19.7875 5.48681 19.1769 5.91952 18.7239 6.47772Z" fill="#FEBE10"/>
<path d="M22.1182 10.8777C22.1788 11.0145 22.2325 11.1521 22.2871 11.2897C22.8968 10.831 23.3134 10.1819 23.8219 9.63497C24.1726 9.25678 24.552 8.89763 24.979 8.59473C25.1817 8.45107 25.3939 8.32039 25.6174 8.20875C25.6685 8.18366 25.7637 8.12827 25.8668 8.07721C25.9603 8.03048 25.9474 7.90153 25.8477 7.88509C24.9539 7.73277 23.9578 7.76133 23.0579 7.9249C22.3044 8.0625 21.5526 8.34203 20.9272 8.79205C21.3872 9.43159 21.7882 10.1283 22.1182 10.8777Z" fill="#FEBE10"/>
<path d="M18.452 4.16429C18.5386 3.73678 18.653 3.31012 18.8271 2.90337C18.9094 2.71039 19.0055 2.52172 19.1172 2.34258C19.1423 2.30191 19.1874 2.21969 19.2393 2.13748C19.2861 2.06218 19.2203 1.97478 19.1406 2.0068C18.4278 2.29152 17.7219 2.75106 17.145 3.26599C16.6548 3.70389 16.2321 4.24564 15.981 4.8575C16.7189 5.16645 17.4257 5.54897 18.0874 6.00505C18.3126 5.4131 18.329 4.77268 18.452 4.16429Z" fill="#FEBE10"/>
<path d="M25.0155 15.5159C24.4136 15.2753 23.7492 15.1377 23.0979 15.1792C23.1239 15.9893 23.0667 16.795 22.9255 17.5825C23.5777 17.5323 24.1745 17.2502 24.7921 17.0849C25.2139 16.9724 25.6478 16.885 26.0895 16.8599C26.2991 16.8478 26.5105 16.8495 26.7209 16.8703C26.7686 16.8746 26.8621 16.8789 26.9591 16.8876C27.0475 16.8962 27.096 16.7984 27.0319 16.7413C26.4602 16.2316 25.7335 15.8032 25.0155 15.5159Z" fill="#FEBE10"/>
<path d="M27.1057 12.275C26.353 11.9098 25.4626 11.677 24.6233 11.5904C23.9105 11.5169 23.1622 11.574 22.4849 11.8198C22.7733 12.6653 22.9586 13.5246 23.0461 14.384C23.7165 14.1374 24.2587 13.6622 24.8581 13.304C25.2669 13.0599 25.6956 12.8392 26.1521 12.6808C26.3686 12.6056 26.5912 12.5441 26.8173 12.5034C26.8692 12.4939 26.968 12.4706 27.0728 12.4506C27.1672 12.4325 27.1897 12.3156 27.1057 12.275Z" fill="#FEBE10"/>
<path d="M19.1388 24.2871C18.704 24.667 18.2372 25.0175 17.74 25.3334C18.0674 25.6631 18.4927 25.8639 18.8642 26.1279C19.1232 26.3113 19.3726 26.5138 19.5918 26.7501C19.6957 26.8617 19.7927 26.9812 19.8785 27.1084C19.8984 27.1378 19.9391 27.1915 19.9789 27.2503C20.0153 27.3031 20.0924 27.2858 20.095 27.2235C20.1167 26.6662 20.0197 26.0612 19.8473 25.5264C19.7018 25.0729 19.4679 24.6341 19.1388 24.2871Z" fill="#FEBE10"/>
<path d="M21.3441 21.6934C20.9977 22.249 20.6019 22.776 20.1619 23.2702C20.6287 23.5211 21.1596 23.5938 21.6525 23.7539C21.992 23.8647 22.3281 23.998 22.6433 24.178C22.7923 24.2637 22.937 24.3589 23.0721 24.4662C23.1033 24.4904 23.1647 24.5345 23.228 24.5847C23.2843 24.6297 23.3622 24.5847 23.3432 24.5172C23.1786 23.9123 22.872 23.2953 22.5065 22.7777C22.2007 22.345 21.8075 21.9556 21.3441 21.6934Z" fill="#FEBE10"/>
<path d="M24.2843 19.3593C23.8244 18.9915 23.2822 18.6956 22.7045 18.5605C22.5148 19.2667 22.2584 19.9521 21.9397 20.6099C22.5131 20.7319 23.1003 20.6471 23.6746 20.6661C24.0713 20.6791 24.4714 20.718 24.8629 20.8124C25.0482 20.8574 25.2319 20.9145 25.4094 20.9881C25.4501 21.0045 25.5298 21.0331 25.6121 21.0668C25.6866 21.0971 25.755 21.0253 25.7143 20.9586C25.3523 20.3624 24.8334 19.7981 24.2843 19.3593Z" fill="#FEBE10"/>
<path d="M9.25617 24.9468C7.38013 25.177 5.65133 25.0039 4.26465 24.4414C4.87354 24.9364 5.53267 25.3709 6.2351 25.7352C7.9102 26.6032 9.82262 27.074 11.8424 27.0212C12.7034 26.9987 13.5383 26.8793 14.3404 26.6794C12.9875 26.5297 11.6952 26.1601 10.4973 25.6045C10.0712 25.4072 9.65633 25.1891 9.25617 24.9468Z" fill="#FEBE10"/>
<path d="M19.3647 20.1997C19.3647 20.1997 19.4227 20.1192 19.3612 20.0534C19.3075 19.9963 19.2244 20.0586 19.2244 20.0586C18.1027 21.1568 16.7429 22.1685 15.183 23.0045C14.8859 23.1637 14.5879 23.3117 14.2891 23.4519C12.9821 24.0664 11.6665 24.5025 10.3967 24.7613C10.7726 24.9751 11.1607 25.1698 11.5591 25.3463C12.7388 25.8673 14.0085 26.2195 15.3389 26.3831C15.8646 26.1996 16.373 25.9807 16.8607 25.7271C16.1487 25.1949 15.4792 24.6202 14.8512 24.0136C16.7931 22.9681 18.3444 21.6207 19.3647 20.1997Z" fill="#FEBE10"/>
<path d="M1.27645 18.0405C1.3648 18.089 1.45661 18.1357 1.55102 18.179C1.8992 18.3391 2.28896 18.4629 2.71337 18.5529C3.07108 18.6282 3.45304 18.6792 3.85666 18.7052C3.69036 18.3149 3.54226 17.9159 3.4132 17.51C3.21399 16.88 3.06069 16.2318 2.95762 15.5706C2.92297 15.3491 2.89439 15.1258 2.871 14.9008C2.85195 14.713 2.83376 14.5243 2.8225 14.3348C2.81644 14.2353 2.81557 14.1358 2.81211 14.0362C2.79825 13.6546 2.79825 13.2755 2.81557 12.8991C2.36432 12.8376 1.97022 12.7234 1.64716 12.5572C1.60558 12.5356 1.56661 12.5131 1.52763 12.4897C1.32322 12.3686 1.14826 12.2275 1.01401 12.0587C0.942125 11.9679 0.88063 11.8709 0.83126 11.7671C0.785355 11.671 0.752442 11.5698 0.72819 11.4668C0.558428 11.9211 0.41465 12.3876 0.302053 12.8662C0.257014 13.0566 0.217172 13.2496 0.182527 13.4434C0.11237 13.8311 0.0612683 14.2249 0.0318198 14.6247C0.0248907 14.7199 0.0222924 14.8168 0.0170956 14.9129C0.0023713 15.2072 -0.00455776 15.5031 0.00323743 15.8017C0.013631 16.1859 0.0430795 16.5641 0.0898507 16.9371C0.364415 17.3915 0.767167 17.7593 1.27645 18.0405Z" fill="#FEBE10"/>
<path d="M4.64427 12.8972C4.34372 12.9292 4.0579 12.9448 3.78247 12.9482C3.78247 13.2156 3.78853 13.4848 3.80326 13.7548C3.80326 13.7583 3.80326 13.7617 3.80326 13.7652C3.80845 13.8543 3.81798 13.9417 3.82491 14.0309C3.83617 14.1832 3.84656 14.3355 3.86129 14.4852C3.93578 15.2027 4.0605 15.8967 4.2294 16.5648C4.41821 17.3134 4.66333 18.03 4.96128 18.7102C6.49087 18.6444 8.23613 18.2714 10.0394 17.5886C9.32139 16.2862 8.71336 14.9776 8.19975 13.7202C8.10794 13.4943 8.01873 13.271 7.93211 13.0486C8.26644 12.9153 8.60163 12.7743 8.93856 12.615C11.0476 11.6163 12.7279 10.3026 13.6876 9.0296C13.7517 8.94479 13.8071 8.86084 13.8643 8.77603C13.8643 8.77603 13.9266 8.68603 13.8573 8.61939C13.7906 8.55535 13.7101 8.62285 13.7101 8.62285C13.5265 8.80199 13.3342 8.98114 13.1254 9.15855C12.1554 9.98243 10.9229 10.776 9.51367 11.4424C8.8736 11.7444 8.23872 11.9971 7.61597 12.2092C6.99669 12.4203 6.39126 12.5899 5.81355 12.7111C5.40993 12.7933 5.01844 12.8565 4.64427 12.8972Z" fill="#FEBE10"/>
<path d="M1.60244 11.316C1.77394 11.4752 1.98874 11.605 2.24251 11.7063C2.3144 11.7349 2.38976 11.7608 2.46684 11.7842C2.60283 11.8266 2.74834 11.8612 2.90164 11.8889C2.92329 11.7132 2.94755 11.5384 2.97613 11.3636C2.99865 11.2243 3.0203 11.0841 3.04715 10.9456C3.1355 10.4852 3.24809 10.0308 3.38061 9.58428C3.66211 8.63924 4.04147 7.72795 4.50832 6.86599C4.63651 6.62973 4.76816 6.39607 4.90934 6.1676C4.95005 6.10269 4.99335 6.03952 5.03493 5.97461C4.69194 6.20914 4.36108 6.46098 4.0458 6.73012C3.5651 7.1412 3.11904 7.59035 2.71109 8.07412C2.09874 8.80108 1.57559 9.60419 1.15552 10.4661C1.17544 10.6107 1.20749 10.7509 1.26898 10.8815C1.3478 11.0468 1.46473 11.1888 1.60244 11.316Z" fill="#FEBE10"/>
<path d="M4.05744 10.1194C4.02366 10.2899 3.99507 10.4612 3.96822 10.6334C3.8972 11.0757 3.84697 11.5239 3.81665 11.9766C4.47664 11.9852 5.22412 11.9039 6.02962 11.7273C6.44796 11.6356 6.88103 11.5188 7.32276 11.3777C7.27165 11.2271 7.22142 11.0774 7.17291 10.9303C6.96244 10.2916 6.77882 9.68406 6.61859 9.11634C6.56229 8.91816 6.50946 8.72604 6.45922 8.53824C6.37347 8.21977 6.29639 7.91687 6.22623 7.63128C6.08765 7.06702 5.97852 6.57114 5.89364 6.1592C5.85639 5.97746 5.82435 5.81389 5.79663 5.66677C5.78883 5.62956 5.78277 5.59408 5.77584 5.55859C5.74293 5.61658 5.70915 5.6737 5.6771 5.73081C5.54718 5.96275 5.42419 6.19901 5.3064 6.43786C4.9305 7.2003 4.61696 7.99562 4.37444 8.81864C4.24972 9.24529 4.14405 9.67973 4.05744 10.1194Z" fill="#FEBE10"/>
<path d="M8.13546 24.1877C6.89949 23.2539 5.82895 22.1012 4.97668 20.7961C4.76101 20.4655 4.55833 20.1263 4.37212 19.7766C3.59086 19.7697 2.87804 19.6771 2.25615 19.4988C1.91663 19.4019 1.60482 19.2799 1.32333 19.1319C1.23671 19.0869 1.15443 19.0384 1.07388 18.9882C0.804515 18.8203 0.569793 18.6248 0.372314 18.4023C0.516092 18.9562 0.699713 19.4936 0.920577 20.012C0.956088 20.096 0.989867 20.1808 1.02798 20.2639C1.15616 20.546 1.29821 20.8195 1.44719 21.0886C1.5797 21.3275 1.72002 21.562 1.86899 21.7905C2.12364 22.1808 2.4034 22.5538 2.70221 22.9095C3.94425 23.9133 5.88352 24.3452 8.13546 24.1877Z" fill="#FEBE10"/>
<path d="M12.1768 17.7539C11.6311 18.0213 11.0863 18.2619 10.5458 18.4756C8.75382 19.187 7.01116 19.6059 5.46338 19.734C5.64613 20.0697 5.84274 20.3943 6.05148 20.7084C6.92714 22.0291 8.02453 23.1567 9.28909 24.0576C10.6879 23.8447 12.1742 23.4224 13.6674 22.7828C12.6852 21.6812 11.8156 20.5042 11.0499 19.2978C11.3539 19.1645 11.658 19.0234 11.9602 18.872C14.7206 17.4951 16.8452 15.657 18.0084 13.8396C18.0084 13.8396 18.0699 13.7548 18.0007 13.6855C17.9314 13.6163 17.8525 13.6838 17.8525 13.6838C16.4546 15.1732 14.4997 16.6141 12.1768 17.7539Z" fill="#FEBE10"/>
</svg>
